<svg width="56" height="56" viewBox="0 0 56 56" fill="none" xmlns="http://www.w3.org/2000/svg">
<g id="Color/Application module">
<path id="Fill 1" fill-rule="evenodd" clip-rule="evenodd" d="M44.271 37.1819H23.5335C20.9347 37.1819 18.8085 35.0556 18.8085 32.4569V11.7194C18.8085 9.12064 20.9347 6.99438 23.5335 6.99438H44.271C46.8697 6.99438 48.996 9.12064 48.996 11.7194V32.4569C48.996 35.0556 46.8697 37.1819 44.271 37.1819Z" fill="#597EF7"/>
<path id="Fill 3" fill-rule="evenodd" clip-rule="evenodd" d="M13.3626 14.7638H8.05295C7.38358 14.7638 6.83594 14.2161 6.83594 13.5468V8.17326C6.83594 7.50388 7.38358 6.95618 8.05295 6.95618H13.3626C14.032 6.95618 14.5797 7.50388 14.5797 8.17326V13.5468C14.5797 14.2161 14.032 14.7638 13.3626 14.7638Z" fill="#7CB305"/>
<path id="Fill 5" fill-rule="evenodd" clip-rule="evenodd" d="M42.6426 49.0579C41.9732 49.0579 41.4255 48.5101 41.4255 47.8408V42.4673C41.4255 41.7979 41.9732 41.2502 42.6426 41.2502H47.9522C48.6216 41.2502 49.1693 41.7979 49.1693 42.4673V47.8408C49.1693 48.5101 48.6216 49.0579 47.9522 49.0579H42.6426Z" fill="#FF7946"/>
<path id="Fill 7" fill-rule="evenodd" clip-rule="evenodd" d="M11.7743 48.9902C9.17551 48.9902 7.04926 46.8639 7.04926 44.2652V23.5277C7.04926 20.9289 9.17551 18.8027 11.7743 18.8027H32.5118C35.1105 18.8027 37.2368 20.9289 37.2368 23.5277V44.2652C37.2368 46.8639 35.1105 48.9902 32.5118 48.9902H11.7743Z" fill="#FAAD14"/>
</g>
</svg>
