<svg width="81" height="80" viewBox="0 0 81 80" fill="none" xmlns="http://www.w3.org/2000/svg">
<g id="Color/Application module">
<path id="Fill 1" fill-rule="evenodd" clip-rule="evenodd" d="M63.9943 53.1169H34.3693C30.6568 53.1169 27.6193 50.0794 27.6193 46.3669V16.7419C27.6193 13.0294 30.6568 9.99194 34.3693 9.99194H63.9943C67.7068 9.99194 70.7443 13.0294 70.7443 16.7419V46.3669C70.7443 50.0794 67.7068 53.1169 63.9943 53.1169Z" fill="#9254DC"/>
<path id="Fill 3" fill-rule="evenodd" clip-rule="evenodd" d="M19.8394 21.0912H12.2542C11.298 21.0912 10.5156 20.3088 10.5156 19.3526V11.6761C10.5156 10.7198 11.298 9.93738 12.2542 9.93738H19.8394C20.7957 9.93738 21.5781 10.7198 21.5781 11.6761V19.3526C21.5781 20.3088 20.7957 21.0912 19.8394 21.0912Z" fill="#7CB305"/>
<path id="Fill 5" fill-rule="evenodd" clip-rule="evenodd" d="M61.6679 70.0826C60.7117 70.0826 59.9293 69.3002 59.9293 68.344V60.6675C59.9293 59.7113 60.7117 58.9288 61.6679 58.9288H69.2531C70.2094 58.9288 70.9918 59.7113 70.9918 60.6675V68.344C70.9918 69.3002 70.2094 70.0826 69.2531 70.0826H61.6679Z" fill="#FF7946"/>
<path id="Fill 7" fill-rule="evenodd" clip-rule="evenodd" d="M17.5704 69.986C13.8579 69.986 10.8204 66.9485 10.8204 63.236V33.611C10.8204 29.8985 13.8579 26.861 17.5704 26.861H47.1954C50.9079 26.861 53.9454 29.8985 53.9454 33.611V63.236C53.9454 66.9485 50.9079 69.986 47.1954 69.986H17.5704Z" fill="#FAAD14"/>
</g>
</svg>
