<svg width="81" height="80" viewBox="0 0 81 80" fill="none" xmlns="http://www.w3.org/2000/svg">
<g id="Color/Clock">
<path id="Ellipse" d="M40.75 74.7656C59.9505 74.7656 75.5156 59.2005 75.5156 40C75.5156 20.7995 59.9505 5.23438 40.75 5.23438C21.5495 5.23438 5.98438 20.7995 5.98438 40C5.98438 59.2005 21.5495 74.7656 40.75 74.7656Z" fill="#9254DC"/>
<path id="Ellipse_2" d="M40.75 72.2824C58.5791 72.2824 73.0324 57.8291 73.0324 40C73.0324 22.171 58.5791 7.71765 40.75 7.71765C22.921 7.71765 8.46765 22.171 8.46765 40C8.46765 57.8291 22.921 72.2824 40.75 72.2824Z" fill="#B37FEB"/>
<path id="Ellipse_3" d="M40.7501 71.1184C57.9362 71.1184 71.8684 57.1862 71.8684 40.0001C71.8684 22.8139 57.9362 8.88171 40.7501 8.88171C23.5639 8.88171 9.63171 22.8139 9.63171 40.0001C9.63171 57.1862 23.5639 71.1184 40.7501 71.1184Z" fill="white"/>
<path id="Path" d="M40.7501 20.2053C41.4358 20.2053 41.9917 20.7612 41.9917 21.447V39.0897H39.5084V21.447C39.5084 20.7612 40.0643 20.2053 40.7501 20.2053Z" fill="#22075E"/>
<path id="Path_2" d="M53.3929 40.0001C53.3929 40.6858 52.837 41.2417 52.1513 41.2417H40.7501V38.7584H52.1513C52.837 38.7584 53.3929 39.3143 53.3929 40.0001Z" fill="#22075E"/>
<path id="Ellipse_4" d="M40.7501 42.8713C42.3358 42.8713 43.6213 41.5858 43.6213 40.0001C43.6213 38.4143 42.3358 37.1288 40.7501 37.1288C39.1643 37.1288 37.8788 38.4143 37.8788 40.0001C37.8788 41.5858 39.1643 42.8713 40.7501 42.8713Z" fill="#FF7946"/>
<path id="Rectangle" d="M41.9885 13.9258C41.9885 13.2401 41.4326 12.6842 40.7469 12.6842C40.0611 12.6842 39.5052 13.2401 39.5052 13.9258V16.4091C39.5052 17.0948 40.0611 17.6507 40.7469 17.6507C41.4326 17.6507 41.9885 17.0948 41.9885 16.4091V13.9258Z" fill="#E4EBF7"/>
<path id="Rectangle_2" d="M21.4325 20.6862C21.9174 20.2014 22.7036 20.2014 23.1885 20.6862L24.9444 22.4422C25.4293 22.9271 25.4293 23.7132 24.9444 24.1981C24.4595 24.683 23.6733 24.683 23.1885 24.1981L21.4325 22.4422C20.9476 21.9573 20.9476 21.1711 21.4325 20.6862Z" fill="#E4EBF7"/>
<path id="Rectangle_3" d="M13.4342 40.0031C13.4342 39.3174 13.9901 38.7615 14.6758 38.7615H17.1591C17.8448 38.7615 18.4007 39.3174 18.4007 40.0031C18.4007 40.6889 17.8448 41.2448 17.1591 41.2448H14.6758C13.9901 41.2448 13.4342 40.6889 13.4342 40.0031Z" fill="#E4EBF7"/>
<path id="Rectangle_4" d="M21.4367 59.3177C20.9518 58.8328 20.9518 58.0467 21.4367 57.5618L23.1927 55.8059C23.6775 55.321 24.4637 55.321 24.9486 55.8059C25.4335 56.2907 25.4335 57.0769 24.9486 57.5618L23.1927 59.3177C22.7078 59.8026 21.9216 59.8026 21.4367 59.3177Z" fill="#E4EBF7"/>
<path id="Rectangle_5" d="M39.5115 66.0742C39.5115 66.7599 40.0674 67.3158 40.7531 67.3158C41.4389 67.3158 41.9948 66.7599 41.9948 66.0742V63.5909C41.9948 62.9052 41.4389 62.3493 40.7531 62.3493C40.0674 62.3493 39.5115 62.9052 39.5115 63.5909V66.0742Z" fill="#E4EBF7"/>
<path id="Rectangle_6" d="M60.0673 59.313C59.5825 59.7979 58.7963 59.7979 58.3114 59.313L56.5555 57.5571C56.0706 57.0722 56.0706 56.2861 56.5555 55.8012C57.0404 55.3163 57.8265 55.3163 58.3114 55.8012L60.0673 57.5571C60.5522 58.042 60.5522 58.8281 60.0673 59.313Z" fill="#E4EBF7"/>
<path id="Rectangle_7" d="M68.0658 39.9969C68.0658 40.6826 67.5099 41.2385 66.8242 41.2385H64.3409C63.6552 41.2385 63.0993 40.6826 63.0993 39.9969C63.0993 39.3111 63.6552 38.7552 64.3409 38.7552H66.8242C67.5099 38.7552 68.0658 39.3111 68.0658 39.9969Z" fill="#E4EBF7"/>
<path id="Rectangle_8" d="M60.0634 20.6829C60.5483 21.1678 60.5483 21.9539 60.0634 22.4388L58.3075 24.1948C57.8226 24.6796 57.0364 24.6796 56.5515 24.1948C56.0666 23.7099 56.0666 22.9237 56.5515 22.4388L58.3075 20.6829C58.7923 20.198 59.5785 20.198 60.0634 20.6829Z" fill="#E4EBF7"/>
</g>
</svg>
