<svg width="81" height="80" viewBox="0 0 81 80" fill="none" xmlns="http://www.w3.org/2000/svg">
<g id="Color/Details page 01">
<path id="Fill 1" fill-rule="evenodd" clip-rule="evenodd" d="M75.8511 20.2221H4.69653V15.1889C4.69653 14.0971 5.56307 13.2119 6.63185 13.2119H73.9157C74.9846 13.2119 75.8511 14.0971 75.8511 15.1889V20.2221Z" fill="#22075E"/>
<path id="Fill 5" fill-rule="evenodd" clip-rule="evenodd" d="M9.68591 16.5033C9.68591 17.1885 9.14546 17.7441 8.4788 17.7441C7.81222 17.7441 7.27185 17.1885 7.27185 16.5033C7.27185 15.8181 7.81222 15.2626 8.4788 15.2626C9.14546 15.2626 9.68591 15.8181 9.68591 16.5033Z" fill="#FF7946"/>
<path id="Fill 7" fill-rule="evenodd" clip-rule="evenodd" d="M14.1925 16.5033C14.1925 17.1885 13.6522 17.7441 12.9855 17.7441C12.3189 17.7441 11.7786 17.1885 11.7786 16.5033C11.7786 15.8181 12.3189 15.2626 12.9855 15.2626C13.6522 15.2626 14.1925 15.8181 14.1925 16.5033Z" fill="#FAAD14"/>
<path id="Fill 9" fill-rule="evenodd" clip-rule="evenodd" d="M18.6994 16.5033C18.6994 17.1885 18.159 17.7441 17.4923 17.7441C16.8258 17.7441 16.2854 17.1885 16.2854 16.5033C16.2854 15.8181 16.8258 15.2626 17.4923 15.2626C18.159 15.2626 18.6994 15.8181 18.6994 16.5033Z" fill="#7CB305"/>
<path id="Fill 3 Copy 4" fill-rule="evenodd" clip-rule="evenodd" d="M6.78302 66.8011C5.59125 66.8011 4.625 65.944 4.625 64.8866V19.3011H75.875V64.8866C75.875 65.944 74.9088 66.8011 73.717 66.8011H6.78302Z" fill="#E4EBF7"/>
<path id="Rectangle" d="M70.1981 23.7943H25.7073C25.2308 23.7943 24.8446 24.1806 24.8446 24.657V33.2019C24.8446 33.6783 25.2308 34.0646 25.7073 34.0646H70.1981C70.6746 34.0646 71.0608 33.6783 71.0608 33.2019V24.657C71.0608 24.1806 70.6746 23.7943 70.1981 23.7943Z" fill="white"/>
<path id="Rectangle_2" d="M54.5321 30.2133H29.8193C29.5534 30.2133 29.3379 30.4288 29.3379 30.6947C29.3379 30.9606 29.5534 31.1761 29.8193 31.1761H54.5321C54.798 31.1761 55.0136 30.9606 55.0136 30.6947C55.0136 30.4288 54.798 30.2133 54.5321 30.2133Z" fill="#E4EBF7"/>
<path id="Rectangle_3" d="M63.5186 27.0038H29.8193C29.5534 27.0038 29.3379 27.2193 29.3379 27.4852C29.3379 27.7511 29.5534 27.9666 29.8193 27.9666H63.5186C63.7845 27.9666 64.0001 27.7511 64.0001 27.4852C64.0001 27.2193 63.7845 27.0038 63.5186 27.0038Z" fill="#E4EBF7"/>
<path id="Rectangle_4" d="M70.1981 37.916H25.7073C25.2308 37.916 24.8446 38.3023 24.8446 38.7787V47.3236C24.8446 47.8 25.2308 48.1863 25.7073 48.1863H70.1981C70.6746 48.1863 71.0608 47.8 71.0608 47.3236V38.7787C71.0608 38.3023 70.6746 37.916 70.1981 37.916Z" fill="#9254DC"/>
<path id="Rectangle_5" d="M54.5321 44.3348H29.8193C29.5534 44.3348 29.3379 44.5504 29.3379 44.8163C29.3379 45.0821 29.5534 45.2977 29.8193 45.2977H54.5321C54.798 45.2977 55.0136 45.0821 55.0136 44.8163C55.0136 44.5504 54.798 44.3348 54.5321 44.3348Z" fill="white"/>
<path id="Rectangle_6" d="M63.5186 41.1254H29.8193C29.5534 41.1254 29.3379 41.3409 29.3379 41.6068C29.3379 41.8727 29.5534 42.0882 29.8193 42.0882H63.5186C63.7845 42.0882 64.0001 41.8727 64.0001 41.6068C64.0001 41.3409 63.7845 41.1254 63.5186 41.1254Z" fill="white"/>
<path id="Rectangle_7" d="M70.1981 52.0376H25.7073C25.2308 52.0376 24.8446 52.4238 24.8446 52.9003V61.4452C24.8446 61.9216 25.2308 62.3079 25.7073 62.3079H70.1981C70.6746 62.3079 71.0608 61.9216 71.0608 61.4452V52.9003C71.0608 52.4238 70.6746 52.0376 70.1981 52.0376Z" fill="white"/>
<path id="Rectangle_8" d="M54.5321 58.4565H29.8193C29.5534 58.4565 29.3379 58.6721 29.3379 58.938C29.3379 59.2038 29.5534 59.4194 29.8193 59.4194H54.5321C54.798 59.4194 55.0136 59.2038 55.0136 58.938C55.0136 58.6721 54.798 58.4565 54.5321 58.4565Z" fill="#E4EBF7"/>
<path id="Rectangle_9" d="M63.5186 55.2471H29.8193C29.5534 55.2471 29.3379 55.4626 29.3379 55.7285C29.3379 55.9944 29.5534 56.2099 29.8193 56.2099H63.5186C63.7845 56.2099 64.0001 55.9944 64.0001 55.7285C64.0001 55.4626 63.7845 55.2471 63.5186 55.2471Z" fill="#E4EBF7"/>
<path id="Rectangle_10" d="M20.7724 23.7943H10.9438C10.4673 23.7943 10.0811 24.1806 10.0811 24.657V33.2019C10.0811 33.6783 10.4673 34.0646 10.9438 34.0646H20.7724C21.2489 34.0646 21.6351 33.6783 21.6351 33.2019V24.657C21.6351 24.1806 21.2489 23.7943 20.7724 23.7943Z" fill="#FAAD14"/>
<path id="Rectangle_11" d="M20.7724 37.916H10.9438C10.4673 37.916 10.0811 38.3023 10.0811 38.7787V47.3236C10.0811 47.8 10.4673 48.1863 10.9438 48.1863H20.7724C21.2489 48.1863 21.6351 47.8 21.6351 47.3236V38.7787C21.6351 38.3023 21.2489 37.916 20.7724 37.916Z" fill="#9254DC"/>
<path id="Rectangle_12" d="M20.7724 52.0376H10.9438C10.4673 52.0376 10.0811 52.4238 10.0811 52.9003V61.4452C10.0811 61.9216 10.4673 62.3079 10.9438 62.3079H20.7724C21.2489 62.3079 21.6351 61.9216 21.6351 61.4452V52.9003C21.6351 52.4238 21.2489 52.0376 20.7724 52.0376Z" fill="#FF7946"/>
</g>
</svg>
