<svg width="56" height="56" viewBox="0 0 56 56" fill="none" xmlns="http://www.w3.org/2000/svg">
<g id="Color/Details page 03">
<path id="Fill 1" fill-rule="evenodd" clip-rule="evenodd" d="M49.7482 11.5448H6.12494V7.7978C6.12494 6.98499 6.8124 6.32599 7.66031 6.32599H48.2128C49.0608 6.32599 49.7482 6.98499 49.7482 7.7978V11.5448Z" fill="#253368"/>
<path id="Fill 3" fill-rule="evenodd" clip-rule="evenodd" d="M48.2128 49.7394H7.66031C6.8124 49.7394 6.12494 49.0479 6.12494 48.1949V11.4183H49.7482V48.1949C49.7482 49.0479 49.0608 49.7394 48.2128 49.7394Z" fill="#E4EBF7"/>
<path id="Rectangle" d="M25.5428 40.45H11.2791C10.7495 40.45 10.3202 40.8793 10.3202 41.4089V45.1846C10.3202 45.7142 10.7495 46.1435 11.2791 46.1435H25.5428C26.0724 46.1435 26.5017 45.7142 26.5017 45.1846V41.4089C26.5017 40.8793 26.0724 40.45 25.5428 40.45Z" fill="#FAAD14"/>
<path id="Rectangle_2" d="M44.7209 40.45H30.4572C29.9276 40.45 29.4983 40.8793 29.4983 41.4089V45.1846C29.4983 45.7142 29.9276 46.1435 30.4572 46.1435H44.7209C45.2505 46.1435 45.6798 45.7142 45.6798 45.1846V41.4089C45.6798 40.8793 45.2505 40.45 44.7209 40.45Z" fill="#597EF7"/>
<path id="Fill 5" fill-rule="evenodd" clip-rule="evenodd" d="M10.0205 8.98601C10.0205 9.48247 9.61803 9.88498 9.12151 9.88498C8.62505 9.88498 8.2226 9.48247 8.2226 8.98601C8.2226 8.48955 8.62505 8.08704 9.12151 8.08704C9.61803 8.08704 10.0205 8.48955 10.0205 8.98601Z" fill="#FF7946"/>
<path id="Fill 7" fill-rule="evenodd" clip-rule="evenodd" d="M13.6164 8.98601C13.6164 9.48247 13.214 9.88498 12.7174 9.88498C12.2209 9.88498 11.8185 9.48247 11.8185 8.98601C11.8185 8.48955 12.2209 8.08704 12.7174 8.08704C13.214 8.08704 13.6164 8.48955 13.6164 8.98601Z" fill="#FAAD14"/>
<path id="Fill 9" fill-rule="evenodd" clip-rule="evenodd" d="M17.2123 8.98601C17.2123 9.48247 16.8098 9.88498 16.3133 9.88498C15.8168 9.88498 15.4144 9.48247 15.4144 8.98601C15.4144 8.48955 15.8168 8.08704 16.3133 8.08704C16.8098 8.08704 17.2123 8.48955 17.2123 8.98601Z" fill="#7CB305"/>
<path id="Rectangle_3" d="M11.2791 15.2788H44.7209C45.2505 15.2788 45.6798 15.7081 45.6798 16.2377V20.9723H10.3202V16.2377C10.3202 15.7081 10.7495 15.2788 11.2791 15.2788Z" fill="#597EF7"/>
<path id="Rectangle_4" d="M45.6798 20.9723H10.3202V26.3661H45.6798V20.9723Z" fill="#FF7946"/>
<path id="Rectangle_5" d="M45.6798 26.3661H10.3202V31.7599H45.6798V26.3661Z" fill="#FAAD14"/>
<path id="Rectangle_6" d="M10.3202 31.4603H45.6798V36.1949C45.6798 36.7245 45.2505 37.1538 44.7209 37.1538H11.2791C10.7495 37.1538 10.3202 36.7245 10.3202 36.1949V31.4603Z" fill="white"/>
</g>
</svg>
