<svg width="56" height="56" viewBox="0 0 56 56" fill="none" xmlns="http://www.w3.org/2000/svg">
<g id="Color/Document">
<path id="patn" d="M43.3368 5.091H17.9249C17.13 5.091 16.4856 5.73333 16.4856 6.52568V45.6803C16.4856 46.4726 17.13 47.1149 17.9249 47.1149H49.5294C50.3243 47.1149 50.9687 46.4726 50.9687 45.6803V12.7569L43.3368 5.091Z" fill="#597EF7"/>
<path id="patn_2" d="M43.3369 5.03125L43.3489 11.3253C43.3489 12.1176 43.9933 12.7599 44.7882 12.7599H50.9688" fill="#E4EBF7"/>
<path id="patn_3" d="M31.8243 8.92755H6.47055C5.67564 8.92755 5.03125 9.56988 5.03125 10.3622V49.5168C5.03125 50.3092 5.67564 50.9515 6.47055 50.9515H38.135C38.9299 50.9515 39.5743 50.3092 39.5743 49.5168V17.3102H34.0432C33.2486 17.3102 31.8243 16.6682 31.8243 15.8755V8.92755Z" fill="#E4EBF7"/>
<path id="Rectangle" d="M15.4981 12.7492H9.79578C9.25071 12.7492 8.80884 13.1911 8.80884 13.7362V19.4138C8.80884 19.9589 9.25071 20.4008 9.79578 20.4008H15.4981C16.0432 20.4008 16.4851 19.9589 16.4851 19.4138V13.7362C16.4851 13.1911 16.0432 12.7492 15.4981 12.7492Z" fill="#597EF7"/>
<path id="Rectangle_2" d="M35.3173 24.2266H9.16722C8.96929 24.2266 8.80884 24.387 8.80884 24.5849V25.7811C8.80884 25.979 8.96929 26.1395 9.16722 26.1395H35.3173C35.5152 26.1395 35.6757 25.979 35.6757 25.7811V24.5849C35.6757 24.387 35.5152 24.2266 35.3173 24.2266Z" fill="#597EF7"/>
<path id="Rectangle_3" d="M35.3173 29.9587H9.16722C8.96929 29.9587 8.80884 30.1191 8.80884 30.3171V31.5132C8.80884 31.7111 8.96929 31.8716 9.16722 31.8716H35.3173C35.5152 31.8716 35.6757 31.7111 35.6757 31.5132V30.3171C35.6757 30.1191 35.5152 29.9587 35.3173 29.9587Z" fill="#FF7946"/>
<path id="Rectangle_4" d="M35.3173 35.6974H9.16722C8.96929 35.6974 8.80884 35.8578 8.80884 36.0558V37.2519C8.80884 37.4498 8.96929 37.6103 9.16722 37.6103H35.3173C35.5152 37.6103 35.6757 37.4498 35.6757 37.2519V36.0558C35.6757 35.8578 35.5152 35.6974 35.3173 35.6974Z" fill="#FAAD14"/>
<path id="patn_4" d="M31.8243 8.92755V15.8755C31.8243 16.6679 32.4687 17.3102 33.2636 17.3102H39.5743" fill="white"/>
</g>
</svg>
