<svg width="81" height="80" viewBox="0 0 81 80" fill="none" xmlns="http://www.w3.org/2000/svg">
<g id="Color/File">
<path id="Path" d="M54.6701 8.79578H17.9694C16.9737 8.79578 16.1665 9.60296 16.1665 10.5987V61.8892H48.9527C48.9527 67.3955 53.6612 71.2432 59.1766 71.2148C64.5972 71.1876 69.0316 66.5925 69.0316 61.1726V23.0866H59.462C57.9356 23.0866 54.6701 19.7453 54.6701 18.2196V8.79578Z" fill="#E4EBF7"/>
<path id="Path_2" d="M49.0248 61.7278H11.4219C11.4219 66.6467 14.9998 70.2028 19.6941 70.9909L21.3468 71.1291L59.0248 71.054C53.544 71.054 48.8851 66.845 49.0248 61.7278Z" fill="#22075E"/>
<path id="Rectangle" d="M32.333 13.6066H24.1239C23.7356 13.6066 23.4208 13.9214 23.4208 14.3097V22.5188C23.4208 22.9072 23.7356 23.222 24.1239 23.222H32.333C32.7214 23.222 33.0362 22.9072 33.0362 22.5188V14.3097C33.0362 13.9214 32.7214 13.6066 32.333 13.6066Z" fill="#9254DC"/>
<path id="Rectangle_2" d="M58.7589 27.9545H24.1074C23.7191 27.9545 23.4043 28.2693 23.4043 28.6576V29.6552C23.4043 30.0435 23.7191 30.3583 24.1074 30.3583H58.7589C59.1472 30.3583 59.462 30.0435 59.462 29.6552V28.6576C59.462 28.2693 59.1472 27.9545 58.7589 27.9545Z" fill="#9254DC"/>
<path id="Rectangle_3" d="M58.7589 35.1923H24.1074C23.7191 35.1923 23.4043 35.5071 23.4043 35.8954V36.893C23.4043 37.2813 23.7191 37.5961 24.1074 37.5961H58.7589C59.1472 37.5961 59.462 37.2813 59.462 36.893V35.8954C59.462 35.5071 59.1472 35.1923 58.7589 35.1923Z" fill="#9254DC"/>
<path id="Rectangle_4" d="M58.7589 42.4302H24.1074C23.7191 42.4302 23.4043 42.745 23.4043 43.1333V44.1309C23.4043 44.5192 23.7191 44.834 24.1074 44.834H58.7589C59.1472 44.834 59.462 44.5192 59.462 44.1309V43.1333C59.462 42.745 59.1472 42.4302 58.7589 42.4302Z" fill="#9254DC"/>
<path id="Path_3" opacity="0.6" d="M54.6655 20.7872V22.6652C54.6655 23.0688 54.8335 23.4541 55.1293 23.7287C55.4251 24.0032 55.8218 24.1421 56.2243 24.1121L69.0803 23.1558L54.6655 20.7872Z" fill="#D3ADF7"/>
<path id="Path_4" d="M62.1175 15.9518L54.6498 8.75L54.6693 22.5526C54.6693 22.8845 54.9384 23.1535 55.2703 23.1535H69.0804L62.1175 15.9518Z" fill="#FAAD14"/>
</g>
</svg>
